<svg width="19" height="17" viewBox="0 0 19 17" fill="none" xmlns="http://www.w3.org/2000/svg">
<path fill-rule="evenodd" clip-rule="evenodd" d="M11.5429 0.406215C12.1901 0.138034 12.8838 0 13.5844 0C14.285 0 14.9787 0.138034 15.626 0.406215C16.2732 0.674397 16.8613 1.06747 17.3565 1.56298C17.8519 2.05821 18.2449 2.64618 18.513 3.2933C18.7812 3.94053 18.9193 4.63426 18.9193 5.33486C18.9193 6.03545 18.7812 6.72918 18.513 7.37641C18.2449 8.02359 17.8519 8.6116 17.3564 9.10685L9.98974 16.4735C9.84909 16.6142 9.65832 16.6932 9.45941 16.6932C9.2605 16.6932 9.06973 16.6142 8.92908 16.4735L1.56241 9.10685C0.562016 8.10646 0 6.74963 0 5.33486C0 3.92008 0.562017 2.56325 1.56241 1.56286C2.56281 0.562462 3.91964 0.000445664 5.33441 0.000445664C6.74918 0.000445604 8.10601 0.562462 9.10641 1.56286L9.45941 1.91586L9.81229 1.56298C10.3076 1.06747 10.8956 0.674397 11.5429 0.406215Z" fill="#D71B1B"/>
</svg>
